HIERARCHY
ROOT Hips
{
	OFFSET 0.000000 0.000000 0.000000 
	CHANNELS 6 Xposition Yposition Zposition Zrotation Yrotation Xrotation
	JOINT LeftUpLeg
	{
		OFFSET 1.363060 -1.794630 0.839290 
		CHANNELS 3 Zrotation Yrotation Xrotation
		JOINT LeftLeg
		{
			OFFSET 2.448110 -6.726130 0.000000 
			CHANNELS 3 Zrotation Yrotation Xrotation
			JOINT LeftFoot
			{
				OFFSET 2.562200 -7.039590 0.000000 
				CHANNELS 3 Zrotation Yrotation Xrotation
				JOINT LeftToeBase
				{
					OFFSET 0.157640 -0.433110 2.322550 
					CHANNELS 3 Zrotation Yrotation Xrotation
					End Site
					{
						OFFSET 0.000000 0.000000 0.000000 
					}
				}
			}
		}
	}
	JOINT RightUpLeg
	{
		OFFSET -1.305520 -1.794630 0.839290 
		CHANNELS 3 Zrotation Yrotation Xrotation
		JOINT RightLeg
		{
			OFFSET -2.542530 -6.985550 0.000000 
			CHANNELS 3 Zrotation Yrotation Xrotation
			JOINT RightFoot
			{
				OFFSET -2.568260 -7.056230 0.000000 
				CHANNELS 3 Zrotation Yrotation Xrotation
				JOINT RightToeBase
				{
					OFFSET -0.164730 -0.452590 2.363150 
					CHANNELS 3 Zrotation Yrotation Xrotation
					End Site
					{
						OFFSET 0.000000 0.000000 0.000000 
					}
				}
			}
		}
	}
	JOINT Spine
	{
		OFFSET 0.028270 2.035590 -0.193380 
		CHANNELS 3 Zrotation Yrotation Xrotation
		JOINT Spine1
		{
			OFFSET 0.056720 2.048850 -0.042750 
			CHANNELS 3 Zrotation Yrotation Xrotation
			JOINT Neck1
			{
				OFFSET -0.054170 1.746240 0.172020 
				CHANNELS 3 Zrotation Yrotation Xrotation
				JOINT Head
				{
					OFFSET 0.104070 1.761360 -0.123970 
					CHANNELS 3 Zrotation Yrotation Xrotation
					End Site
					{
						OFFSET 0.000000 0.000000 0.000000 
					}
				}
			}
			JOINT LeftArm
			{
				OFFSET 3.362410 1.200890 -0.311210 
				CHANNELS 3 Zrotation Yrotation Xrotation
				JOINT LeftForeArm
				{
					OFFSET 4.983000 -0.000000 -0.000000 
					CHANNELS 3 Zrotation Yrotation Xrotation
					JOINT LeftHand
					{
						OFFSET 3.483560 -0.000000 -0.000000 
						CHANNELS 3 Zrotation Yrotation Xrotation
						JOINT LeftHandIndex1
						{
							OFFSET 0.715260 -0.000000 -0.000000 
							CHANNELS 3 Zrotation Yrotation Xrotation
							End Site
							{
								OFFSET 0.000000 0.000000 0.000000 
							}
						}
					}
				}
			}
			JOINT RightArm
			{
				OFFSET -3.136600 1.374050 -0.404650 
				CHANNELS 3 Zrotation Yrotation Xrotation
				JOINT RightForeArm
				{
					OFFSET -5.241900 -0.000000 -0.000000 
					CHANNELS 3 Zrotation Yrotation Xrotation
					JOINT RightHand
					{
						OFFSET -3.444170 -0.000000 -0.000000 
						CHANNELS 3 Zrotation Yrotation Xrotation
						JOINT RightHandIndex1
						{
							OFFSET -0.622530 -0.000000 -0.000000 
							CHANNELS 3 Zrotation Yrotation Xrotation
							End Site
							{
								OFFSET 0.000000 0.000000 0.000000 
							}
						}
					}
				}
			}
		}
	}
}
MOTION
Frames: 15
Frame Time: 0.041667
-1.133615 14.849970 3.920616 -4.379468 4.587787 26.549168 -3.662208 -6.121375 -62.583690 10.272894 22.651420 64.696517 1.381247 -9.953740 -15.772323 0.539800 -4.707200 -13.075300 24.952247 2.978008 -61.995557 -11.612978 -24.129752 70.748934 -1.505606 -4.575594 -26.144184 -0.404600 4.083800 -11.312600 0.907803 -4.429552 -4.489535 -4.904334 -1.884220 -8.327912 0.030480 14.845840 -1.705719 -5.848400 6.189900 4.027000 -34.676931 -30.016323 1.764483 52.299246 -48.519636 -18.983469 -0.095034 3.790859 -4.932480 -7.125000 0.000000 0.000000 90.794136 -1.451690 48.931676 -45.164486 49.160657 -14.169604 -1.836645 -3.224675 -0.055673 7.125000 0.000000 0.000000 
-1.136085 14.925251 3.930818 -4.377952 4.605644 26.581663 -3.808119 -6.291336 -61.954646 9.855760 22.467837 63.526638 1.332627 -9.627695 -15.491878 0.520300 -4.623100 -12.836700 25.098701 3.084057 -61.438253 -11.201582 -23.984988 69.636630 -1.428287 -4.712868 -25.817275 -0.389800 4.009200 -11.102600 0.899438 -4.376122 -4.498078 -4.965112 -1.868702 -8.236265 0.104140 14.697295 -1.677046 -5.820500 6.125600 4.032400 -36.106345 -28.403799 3.595593 54.712471 -49.515825 -20.657599 -0.047917 3.699188 -4.857114 -7.125000 0.000000 0.000000 90.821063 -1.484560 48.828801 -45.026209 49.098596 -14.082968 -1.822602 -3.236236 -0.240711 7.125000 0.000000 0.000000 
-1.138448 15.000747 3.941342 -4.374281 4.630791 26.610663 -3.956134 -6.470364 -61.310602 9.435996 22.272563 62.338911 1.284450 -9.287721 -15.214822 0.501700 -4.540600 -12.602800 25.247689 3.182878 -60.867483 -10.789237 -23.829371 68.513850 -1.351475 -4.855657 -25.490683 -0.375000 3.933100 -10.888500 0.889636 -4.320579 -4.506430 -5.039397 -1.851878 -8.143248 0.182457 14.541811 -1.644038 -5.791000 6.059500 4.037300 -37.532886 -26.769085 5.442726 57.172552 -50.420487 -22.419027 0.002669 3.622311 -4.850252 -7.125000 0.000000 0.000000 90.856526 -1.531987 48.709984 -44.895614 49.042083 -14.002060 -1.812502 -3.243673 -0.324894 7.125000 0.000000 0.000000 
-1.140595 15.076457 3.952188 -4.371125 4.657175 26.638195 -4.103408 -6.655222 -60.653087 9.014139 22.065062 61.133197 1.236430 -8.911768 -14.947552 0.484700 -4.464300 -12.386600 25.399367 3.281385 -60.285029 -10.374642 -23.662908 67.376569 -1.274249 -5.006624 -25.159976 -0.360500 3.857000 -10.674700 0.879034 -4.263271 -4.515415 -5.121998 -1.833902 -8.046378 0.269379 14.383137 -1.596502 -5.754700 5.994100 4.054200 -38.961011 -25.113216 7.309503 59.651848 -51.221057 -24.246791 0.056737 3.561518 -4.921591 -7.125000 0.000000 0.000000 90.897403 -1.589407 48.583454 -44.773374 48.990641 -13.927034 -1.805954 -3.248049 -0.314972 7.125000 0.000000 0.000000 
-1.142636 15.152060 3.963464 -4.366634 4.690365 26.657922 -4.249845 -6.851526 -59.974595 8.590624 21.844912 59.909246 1.188761 -8.510826 -14.687119 0.468500 -4.390000 -12.176500 25.553444 3.373772 -59.684411 -9.958759 -23.484436 66.225771 -1.196951 -5.165948 -24.827323 -0.345900 3.779200 -10.456300 0.867418 -4.206479 -4.526313 -5.204839 -1.815452 -7.948509 0.389570 14.201133 -1.521319 -5.688400 5.923800 4.086800 -40.380943 -23.437439 9.206318 62.114518 -51.907327 -26.108263 0.111946 3.514952 -5.083719 -7.125000 0.000000 0.000000 90.937747 -1.658153 48.454360 -44.656021 48.941502 -13.855707 -1.801627 -3.251749 -0.232640 7.125000 0.000000 0.000000 
-1.144139 15.228200 3.975600 -4.369228 4.721113 26.663483 -4.394595 -7.047142 -59.262851 8.166524 21.610146 58.667823 1.141457 -8.087172 -14.433918 0.454500 -4.324800 -11.992300 25.718138 3.465652 -59.051665 -9.539179 -23.292500 65.054951 -1.119862 -5.330192 -24.489996 -0.331300 3.699200 -10.232000 0.855934 -4.145135 -4.537139 -5.294415 -1.794329 -7.859167 0.503248 14.026414 -1.441789 -5.629700 5.857500 4.122300 -41.785793 -21.748496 11.120889 64.524111 -52.480496 -27.972964 0.160357 3.481273 -5.321297 -7.125000 0.000000 0.000000 90.981885 -1.748807 48.315869 -44.553557 48.899651 -13.792742 -1.798925 -3.252216 -0.090587 7.125000 0.000000 0.000000 
-1.145643 15.304555 3.988057 -4.371820 4.759988 26.662445 -4.535073 -7.253594 -58.532598 7.742735 21.362778 57.411151 1.093676 -7.654268 -14.175252 0.439400 -4.253300 -11.790400 25.888251 3.550316 -58.399060 -9.117813 -23.087107 63.866926 -1.041997 -5.504345 -24.146003 -0.317200 3.620600 -10.011500 0.845771 -4.087520 -4.548197 -5.382654 -1.774814 -7.774594 0.615729 13.858221 -1.357600 -5.572700 5.795100 4.161200 -43.172731 -20.051859 13.028703 66.843738 -52.944126 -29.805566 0.201139 3.455398 -5.607475 -7.125000 0.000000 0.000000 91.022031 -1.850532 48.174832 -44.457071 48.858613 -13.733068 -1.798152 -3.249148 0.083351 7.125000 0.000000 0.000000 
-1.146609 15.381339 4.001910 -4.390911 4.782827 26.637525 -4.671497 -7.443433 -57.754767 7.321803 21.098729 56.141668 1.046538 -7.207519 -13.921734 0.425700 -4.187700 -11.605200 26.074679 3.645370 -57.699272 -8.692936 -22.867227 62.657510 -0.964920 -5.681383 -23.797377 -0.303600 3.542900 -9.794100 0.836021 -4.018997 -4.557450 -5.476458 -1.749483 -7.703140 0.707509 13.704665 -1.283240 -5.536500 5.737500 4.190100 -44.543325 -18.347303 14.921421 69.042392 -53.309277 -31.574279 0.228497 3.433912 -5.902931 -7.125000 0.000000 0.000000 91.063276 -1.971956 48.025100 -44.366057 48.817497 -13.674721 -1.798528 -3.240635 0.268520 7.125000 0.000000 0.000000 
-1.147468 15.457586 4.016515 -4.413282 4.807427 26.596165 -4.803926 -7.637495 -56.948484 6.904632 20.821491 54.863194 0.998913 -6.777665 -13.647332 0.408000 -4.100700 -11.360200 26.265632 3.740807 -56.967295 -8.268408 -22.633520 61.434407 -0.887463 -5.870456 -23.445794 -0.290700 3.467200 -9.582200 0.827122 -3.950893 -4.566415 -5.565219 -1.723957 -7.636362 0.804574 13.547693 -1.202516 -5.496100 5.679700 4.221300 -45.904411 -16.635615 16.778464 71.082810 -53.586270 -33.240761 0.253406 3.411580 -6.170970 -7.125000 0.000000 0.000000 91.101671 -2.094097 47.875748 -44.275788 48.773334 -13.611302 -1.789588 -3.234976 0.424967 7.125000 0.000000 0.000000 
-1.147898 15.533941 4.032087 -4.434438 4.844442 26.526103 -4.935594 -7.848330 -56.101087 6.492031 20.531927 53.577809 0.951632 -6.339577 -13.373438 0.391100 -4.015600 -11.120500 26.463795 3.817733 -56.187807 -7.846053 -22.382975 60.199780 -0.811129 -6.066504 -23.097127 -0.278200 3.392400 -9.373200 0.819217 -3.885972 -4.573342 -5.654434 -1.699785 -7.580033 0.894176 13.395037 -1.126748 -5.463500 5.623300 4.245300 -47.269853 -14.918631 18.578371 72.937848 -53.792157 -34.775161 0.279926 3.385298 -6.351665 -7.125000 0.000000 0.000000 91.139276 -2.224314 47.718281 -44.187616 48.726479 -13.544044 -1.775076 -3.227267 0.546922 7.125000 0.000000 0.000000 
-1.148113 15.609329 4.048196 -4.456412 4.885912 26.440055 -5.064227 -8.067391 -55.230774 6.086556 20.231175 52.292080 0.904752 -5.892049 -13.100032 0.374600 -3.931100 -10.883000 26.664661 3.890104 -55.380489 -7.428209 -22.119469 58.960810 -0.736244 -6.269915 -22.752893 -0.265700 3.316000 -9.159800 0.811386 -3.819951 -4.578569 -5.746667 -1.675324 -7.527445 0.979928 13.244987 -1.052820 -5.435900 5.568000 4.264800 -48.642756 -13.197281 20.307886 74.586361 -53.944847 -36.151477 0.301634 3.355429 -6.420591 -7.125000 0.000000 0.000000 91.180253 -2.357094 47.549772 -44.101798 48.678895 -13.472313 -1.750535 -3.221508 0.619148 7.125000 0.000000 0.000000 
-1.148328 15.683321 4.064734 -4.484902 4.926348 26.347680 -5.184226 -8.286852 -54.351864 5.690832 19.920670 51.012126 0.858389 -5.432735 -12.830664 0.359400 -3.851100 -10.658200 26.869434 3.970448 -54.561236 -7.016158 -21.845911 57.721550 -0.661562 -6.487928 -22.411360 -0.253900 3.242100 -8.953400 0.803438 -3.749477 -4.584292 -5.839313 -1.649035 -7.476853 1.071517 13.089673 -0.967287 -5.403600 5.512000 4.292300 -50.030939 -11.464391 21.965638 76.023824 -54.060283 -37.359101 0.320186 3.324579 -6.370960 -7.125000 0.000000 0.000000 91.223354 -2.488961 47.382691 -44.018792 48.631610 -13.396229 -1.713144 -3.221927 0.608550 7.125000 0.000000 0.000000 
-1.148542 15.755488 4.081164 -4.518972 4.953191 26.258935 -5.299035 -8.496298 -53.476399 5.306831 19.601698 49.743495 0.812812 -4.961079 -12.569604 0.345200 -3.775000 -10.444600 27.071138 4.072543 -53.744790 -6.610620 -21.565008 56.485072 -0.587131 -6.718174 -22.069951 -0.242200 3.167200 -8.744600 0.794551 -3.668771 -4.590972 -5.927016 -1.617678 -7.425448 1.176851 12.922090 -0.868965 -5.359000 5.452700 4.325700 -51.429953 -9.725297 23.549148 77.231163 -54.152378 -38.375498 0.340104 3.295170 -6.221456 -7.125000 0.000000 0.000000 91.264078 -2.625569 47.214746 -43.944905 48.589371 -13.323144 -1.668756 -3.226199 0.514370 7.125000 0.000000 0.000000 
-1.149079 15.825614 4.097166 -4.562943 4.959723 26.186942 -5.404284 -8.688392 -52.619448 4.935744 19.275498 48.489357 0.767980 -4.476153 -12.319735 0.332000 -3.703200 -10.243200 27.271596 4.205462 -52.946674 -6.211402 -21.279481 55.252388 -0.512863 -6.960102 -21.726449 -0.230900 3.092600 -8.536700 0.785218 -3.575007 -4.598741 -6.011552 -1.580085 -7.371446 1.282119 12.755141 -0.764141 -5.315800 5.394500 4.362300 -52.829749 -7.983733 25.058099 78.231961 -54.233619 -39.218322 0.357765 3.272987 -6.020632 -7.125000 0.000000 0.000000 91.301125 -2.769967 47.050972 -43.882450 48.554870 -13.258540 -1.623871 -3.232180 0.341422 7.125000 0.000000 0.000000 
-1.149938 15.893914 4.112523 -4.614216 4.944020 26.131966 -5.501798 -8.862992 -51.780610 4.577210 18.942373 47.248018 0.723878 -3.979810 -12.080736 0.318600 -3.628300 -10.033100 27.468029 4.371070 -52.167712 -5.818416 -20.989113 54.022301 -0.437940 -7.217490 -21.377751 -0.220000 3.019400 -8.332700 0.775760 -3.469277 -4.607566 -6.086101 -1.536440 -7.313084 1.392617 12.587830 -0.651169 -5.268500 5.337400 4.403200 -54.224799 -6.241156 26.494748 79.051875 -54.311165 -39.907642 0.374798 3.261257 -5.828589 -7.125000 0.000000 0.000000 91.327255 -2.918360 46.898540 -43.835379 48.530151 -13.206464 -1.581663 -3.239572 0.096659 7.125000 0.000000 0.000000 
